# xmcd CD database file
#
# Track frame offsets:
#	150
#	13746
#	32391
#	44570
#	59618
#	73427
#	84965
#	96275
#	108807
#	121581
#	133569
#	145493
#	159006
#	169424
#	182876
#	195585
#	209202
#	222889
#	242139
#	254583
#
# Disc length: 3540 seconds
#
# Revision: 0
# Processed by: cddbd v1.5.2PL0 Copyright (c) Steve Scherf et al.
# Submitted via: CDex 1.51
#
DISCID=2a0dd214
DTITLE=Django Reinhart - Anthology CD3
DYEAR=2008
DGENRE=Jazz
TTITLE0=Pour commencer
TTITLE1=Festival swing
TTITLE2=Bouncing Around
TTITLE3=Taj Mahal
TTITLE4=You rascal, you
TTITLE5=Harlem swing
TTITLE6=Undecided
TTITLE7=Tears
TTITLE8=At the jimmy s bar
TTITLE9=Coucou
TTITLE10=Sérénade d hiver
TTITLE11=Les yeux noires
TTITLE12=La cigale et la fourmi
TTITLE13=De nulle part
TTITLE14=Place de brouckère
TTITLE15=Eclats de Cuivres
TTITLE16=Blues clair
TTITLE17=artiellerie lourdes
TTITLE18=Minor blues
TTITLE19=Brazil
EXTD=YEAR: 2008
EXTT0=
EXTT1=
EXTT2=
EXTT3=
EXTT4=
EXTT5=
EXTT6=
EXTT7=
EXTT8=
EXTT9=
EXTT10=
EXTT11=
EXTT12=
EXTT13=
EXTT14=
EXTT15=
EXTT16=
EXTT17=
EXTT18=
EXTT19=
PLAYORDER=
